<?xml version="1.0" ?><svg xmlns="http://www.w3.org/2000/svg" id="Kanban" viewBox="0 0 64 64"><path d="M6,55c-2.20556641,0-4-1.79394531-4-4V11h60v40c0,2.20605469-1.79443359,4-4,4H6Z" style="fill:#d9ecff; stroke-width:0px;"/><path d="M23,11V1h35c2.20556641,0,4,1.79394531,4,4v6H23Z" style="fill:#45a9f4; stroke-width:0px;"/><path d="M2,11v-6C2,2.79394531,3.79443359,1,6,1h16.60009766c2.09960938,0,4.07373047,1.1171875,5.15234375,2.91503906l4.24267578,7.08496094H2Z" style="fill:#64c4ff; stroke-width:0px;"/><rect x="8" y="19" width="48" height="44" rx="4" ry="4" style="fill:#f45687; stroke-width:0px;"/><path d="M12,19c-2.20916748,0-4,1.79083252-4,4v6h16v-10h-12Z" style="fill:#ff6c9d; stroke-width:0px;"/><path d="M18,25h-4c-.55224609,0-1-.44726562-1-1s.44775391-1,1-1h4c.55224609,0,1,.44726562,1,1s-.44775391,1-1,1Z" style="fill:#f45687; stroke-width:0px;"/><path d="M18,36h-4c-.55224609,0-1-.44726562-1-1s.44775391-1,1-1h4c.55224609,0,1,.44726562,1,1s-.44775391,1-1,1Z" style="fill:#db4070; stroke-width:0px;"/><path d="M18,42h-4c-.55224609,0-1-.44726562-1-1s.44775391-1,1-1h4c.55224609,0,1,.44726562,1,1s-.44775391,1-1,1Z" style="fill:#db4070; stroke-width:0px;"/><path d="M18,48h-4c-.55224609,0-1-.44726562-1-1s.44775391-1,1-1h4c.55224609,0,1,.44726562,1,1s-.44775391,1-1,1Z" style="fill:#db4070; stroke-width:0px;"/><path d="M18,54h-4c-.55224609,0-1-.44726562-1-1s.44775391-1,1-1h4c.55224609,0,1,.44726562,1,1s-.44775391,1-1,1Z" style="fill:#db4070; stroke-width:0px;"/><rect x="24" y="29" width="16" height="34" style="fill:#4fc6af; stroke-width:0px;"/><rect x="24" y="19" width="16" height="10" style="fill:#68ddc1; stroke-width:0px;"/><path d="M34,25h-4c-.55224609,0-1-.44726562-1-1s.44775391-1,1-1h4c.55224609,0,1,.44726562,1,1s-.44775391,1-1,1Z" style="fill:#4fc6af; stroke-width:0px;"/><path d="M34,36h-4c-.55224609,0-1-.44726562-1-1s.44775391-1,1-1h4c.55224609,0,1,.44726562,1,1s-.44775391,1-1,1Z" style="fill:#35af9d; stroke-width:0px;"/><path d="M34,42h-4c-.55224609,0-1-.44726562-1-1s.44775391-1,1-1h4c.55224609,0,1,.44726562,1,1s-.44775391,1-1,1Z" style="fill:#35af9d; stroke-width:0px;"/><path d="M34,48h-4c-.55224609,0-1-.44726562-1-1s.44775391-1,1-1h4c.55224609,0,1,.44726562,1,1s-.44775391,1-1,1Z" style="fill:#35af9d; stroke-width:0px;"/><path d="M34,54h-4c-.55224609,0-1-.44726562-1-1s.44775391-1,1-1h4c.55224609,0,1,.44726562,1,1s-.44775391,1-1,1Z" style="fill:#35af9d; stroke-width:0px;"/><path d="M40,29v34h12c2.20916748,0,4-1.79089355,4-4v-30h-16Z" style="fill:#ffcd7d; stroke-width:0px;"/><path d="M52,19h-12v10h16v-6c0-2.20916748-1.79083252-4-4-4Z" style="fill:#ffe094; stroke-width:0px;"/><path d="M50,25h-4c-.55224609,0-1-.44726562-1-1s.44775391-1,1-1h4c.55224609,0,1,.44726562,1,1s-.44775391,1-1,1Z" style="fill:#ffcd7d; stroke-width:0px;"/><path d="M50,36h-4c-.55224609,0-1-.44726562-1-1s.44775391-1,1-1h4c.55224609,0,1,.44726562,1,1s-.44775391,1-1,1Z" style="fill:#ffaf5f; stroke-width:0px;"/><path d="M50,42h-4c-.55224609,0-1-.44726562-1-1s.44775391-1,1-1h4c.55224609,0,1,.44726562,1,1s-.44775391,1-1,1Z" style="fill:#ffaf5f; stroke-width:0px;"/><path d="M50,48h-4c-.55224609,0-1-.44726562-1-1s.44775391-1,1-1h4c.55224609,0,1,.44726562,1,1s-.44775391,1-1,1Z" style="fill:#ffaf5f; stroke-width:0px;"/><path d="M50,54h-4c-.55224609,0-1-.44726562-1-1s.44775391-1,1-1h4c.55224609,0,1,.44726562,1,1s-.44775391,1-1,1Z" style="fill:#ffaf5f; stroke-width:0px;"/><path d="M58,0H6C3.24316406,0,1,2.24316406,1,5v46c0,2.28710938,1.54345703,4.27636719,3.75341797,4.83886719.53515625.14160156,1.08007812-.18652344,1.21582031-.72167969.13623047-.53515625-.1875-1.08007812-.72265625-1.21582031-1.32275391-.33691406-2.24658203-1.53027344-2.24658203-2.90136719V12h58v39c0,1.37109375-.92382812,2.56445312-2.24658203,2.90136719-.53515625.13574219-.85888672.68066406-.72265625,1.21582031.11523438.45214844.52197266.75292969.96875.75292969.08154297,0,.16455078-.00976562.24707031-.03125,2.20996094-.5625,3.75341797-2.55175781,3.75341797-4.83886719V5c0-2.75683594-2.24316406-5-5-5ZM3,10v-5c0-1.65429688,1.34570312-3,3-3h16.60302734c1.74609375,0,3.38916016.93066406,4.28759766,2.42773438l3.34326172,5.57226562H3ZM32.56622314,10l-3.96075439-6.6015625c-.31048584-.51733398-.68548584-.9854126-1.10949707-1.3984375h30.50402832c1.65429688,0,3,1.34570312,3,3v5h-28.43377686Z" style="fill:#393e4c; stroke-width:0px;"/><circle cx="6" cy="5" r="1" style="fill:#45a9f4; stroke-width:0px;"/><circle cx="10" cy="5" r="1" style="fill:#45a9f4; stroke-width:0px;"/><circle cx="14" cy="5" r="1" style="fill:#45a9f4; stroke-width:0px;"/><path d="M52,18H12c-2.75683594,0-5,2.24316406-5,5v36c0,2.75683594,2.24316406,5,5,5h40c2.75683594,0,5-2.24316406,5-5V23c0-2.75683594-2.24316406-5-5-5ZM55,23v5h-14v-8h11c1.65429688,0,3,1.34570312,3,3ZM39,28h-14v-8h14v8ZM9,23c0-1.65429688,1.34570312-3,3-3h11v8h-14v-5ZM9,59v-29h14v32h-11c-1.65429688,0-3-1.34570312-3-3ZM25,30h14v32h-14V30ZM55,59c0,1.65429688-1.34570312,3-3,3h-11V30h14v29Z" style="fill:#393e4c; stroke-width:0px;"/></svg>